<svg width="196" height="43" viewBox="0 0 196 43" fill="none" xmlns="http://www.w3.org/2000/svg">
<g clip-path="url(#clip0_3_1398)">
<path d="M42.86 10.3451C42.86 21.1351 42.86 31.9251 42.86 42.7151C42.86 42.9151 42.81 42.9651 42.61 42.9651C31.82 42.9651 21.03 42.9651 10.24 42.9651C10.24 39.7751 10.24 36.5851 10.24 33.3951C10.24 32.8251 9.96999 32.5351 9.39999 32.4751C9.13999 32.4451 8.91 32.4951 8.67 32.6251C7.91 33.0651 7.11999 33.3951 6.22999 33.4651C4.24999 33.6251 2.54999 33.0451 1.19999 31.5451C0.139995 30.3551 -0.170005 28.9351 0.0799949 27.4251C0.359995 25.7751 1.38999 24.5751 2.84999 23.8251C4.76999 22.8451 6.72999 22.9051 8.60999 24.0151C8.92999 24.2051 9.22999 24.2351 9.56999 24.1651C9.96 24.0851 10.24 23.7551 10.24 23.3551C10.24 19.0151 10.24 14.6751 10.24 10.3351C14.03 10.3351 17.83 10.3351 21.62 10.3351C21.98 10.3351 22.19 10.1451 22.32 9.83507C22.54 9.33507 22.37 8.90507 22.11 8.47507C21.64 7.67507 21.4 6.79507 21.39 5.86507C21.37 4.39507 21.76 3.04507 22.73 1.91507C23.3 1.25507 23.94 0.66507 24.81 0.40507C25.52 0.19507 26.25 0.0550701 27 0.10507C27.46 0.13507 27.9 0.20507 28.32 0.40507C29.67 1.04507 30.71 1.98507 31.28 3.40507C32.01 5.23507 31.87 7.00507 30.89 8.69507C30.66 9.09507 30.61 9.48507 30.82 9.87507C31.02 10.2551 31.38 10.3351 31.79 10.3351C35.48 10.3351 39.18 10.3351 42.87 10.3351L42.86 10.3451Z" fill="#090A0A"/>
<path d="M72.54 24.8051V27.9951H83.01V33.8751H72.54V37.0951H84.36V42.9751H65.22V18.9351H84.36V24.8151H72.54V24.8051Z" fill="#090A0A"/>
<path d="M107.51 42.965L95.52 32.1651V42.965H88.16V18.925H90.89L102.91 29.865V18.925H110.27V42.965H107.51Z" fill="#090A0A"/>
<path d="M122.35 42.965H115.03V18.925H122.35V42.965Z" fill="#090A0A"/>
<path d="M133.22 31.075C130.33 27.335 126.59 22.575 123.76 18.925H132.59L137.48 25.885C138.33 24.675 139.38 23.095 142.27 18.925H151.07L141.68 31.075C143.65 33.535 145.88 36.365 151.04 42.965H142.14L137.44 36.295C136.75 37.215 135.96 38.425 132.71 42.965H123.94L133.2 31.075H133.22Z" fill="#090A0A"/>
<path d="M187.26 42.965H179.18L177.51 39.545H169.37L167.69 42.965H159.61L172.35 18.925H174.52L187.26 42.965ZM175.41 34.455L173.44 29.665L171.47 34.455H175.41Z" fill="#090A0A"/>
<path d="M195.83 42.965H188.51V18.925H195.83V42.965Z" fill="#090A0A"/>
<path d="M61.81 35.4051C64.3174 35.4051 66.35 33.3724 66.35 30.8651C66.35 28.3577 64.3174 26.3251 61.81 26.3251C59.3026 26.3251 57.27 28.3577 57.27 30.8651C57.27 33.3724 59.3026 35.4051 61.81 35.4051Z" fill="#090A0A"/>
<path d="M66.74 27.2751H63.65V34.4651H66.74V27.2751Z" fill="#090A0A"/>
<path d="M64.5 27.205C64.5 27.205 64.65 27.285 64.79 27.275C64.83 27.275 64.93 27.265 65.04 27.195C65.18 27.095 65.23 26.945 65.23 26.885V26.735C65.51 26.975 65.79 27.215 66.07 27.455L65.42 28.095L64.3 27.905C64.37 27.675 64.44 27.445 64.51 27.215L64.5 27.205Z" fill="#090A0A"/>
<path d="M64.48 34.535C64.48 34.535 64.63 34.455 64.77 34.465C64.81 34.465 64.92 34.475 65.02 34.545C65.16 34.645 65.21 34.795 65.21 34.855V35.005C65.5 34.765 65.78 34.525 66.07 34.285L65.4 33.645L64.26 33.835C64.33 34.065 64.4 34.295 64.47 34.525L64.48 34.535Z" fill="#090A0A"/>
</g>
<defs>
<clipPath id="clip0_3_1398">
<rect width="195.83" height="42.86" fill="white" transform="translate(0 0.105042)"/>
</clipPath>
</defs>
</svg>
